<?xml version="1.0" encoding="utf-8"?>
<!DOCTYPE svg PUBLIC "-//W3C//DTD SVG 1.1//EN" "http://www.w3.org/Graphics/SVG/1.1/DTD/svg11.dtd">
<svg version="1.1" xmlns="http://www.w3.org/2000/svg" xmlns:xlink="http://www.w3.org/1999/xlink" x="0px" y="0px" viewBox="0 0 1000 1000" enable-background="new 0 0 1000 1000" xml:space="preserve" fill="#1F243A">
<g><path d="M499.8,990c-12.6,0-25.2-3.4-36.4-10.1l-115.9-71c-17.3-10-8.8-13.6-3.2-15.6c23.1-8.3,30-12.4,54.6-26.9c2.6-1.5,6-0.9,8.7,0.7l86.9,51.4c3.2,1.9,7.8,1.9,10.8,0l339.5-201.8c3.2-1.9,5.3-5.8,5.3-9.7V298.5c0-4-2.1-7.9-5.4-9.9L505.3,81.5c-3.2-2-7.5-2-10.7,0L155.5,288.6c-3.4,2-5.5,5.9-5.5,9.8v408.6c0,4,2.1,7.7,5.4,9.6l87.3,52.4c51.6,26.7,82.2-0.4,82.2-32V335.3c0-5.8,4.5-10.3,10.1-10.3h49.9c5.5,0,10.1,4.5,10.1,10.3v401.8c0,71.2-42.3,112.1-107.6,112.1c-20,0-35.9,0-80-22.5l-91-54.2C93.9,759.1,80,734,80,707.1V292.6c0-26.9,13.9-52,36.5-65.4L463.6,19.6c21.9-12.9,51.1-12.9,72.9,0l347,207.5c22.5,13.5,36.5,38.6,36.5,65.4v414.5c0,26.9-13.9,52-36.5,65.5l-347,207.3c-11.1,6.6-23.7,10.1-36.5,10.1L499.8,990z"/><path d="M607.1,710c-141.3,0-183.8-69.1-183.8-129.7c0-5.8,4.5-10.3,10-10.3h44.9c5,0,9.2,3.7,10,8.8c6.7,47.3,36.6,68.1,118.8,68.1c73.1,0,103-22.6,103-62.7c0-23.2-7.6-40.3-121.2-51.8c-95-9.7-153.8-31.4-153.8-110c0-72.5,59.1-114.8,158-114.8c100.9,0,167.3,30.6,173.2,111.2c0.2,2.9-0.8,5.8-2.7,8c-1.9,2.1-4.5,3.3-7.3,3.3h-45c-4.7,0-8.8-3.4-9.8-8.1c-9.6-37.1-37.1-51.2-108.4-51.2c-79.8,0-89.1,27.9-89.1,49.5c0,26.2,11,33.8,118.8,48.5C729.3,483.2,780,503.9,780,581.4C780,659.7,716.9,710,607.1,710L607.1,710L607.1,710z"/></g>
</svg>